
<svg
   xmlns:dc="http://purl.org/dc/elements/1.1/"
   xmlns:cc="http://creativecommons.org/ns#"
   xmlns:rdf="http://www.w3.org/1999/02/22-rdf-syntax-ns#"
   xmlns:svg="http://www.w3.org/2000/svg"
   xmlns="http://www.w3.org/2000/svg"
   id="svg8"
   version="1.1"
   viewBox="0 0 7.9374997 7.9375002"
   height="30"
   width="30">
  <defs
     id="defs2" />
  <metadata
     id="metadata5">
    <rdf:RDF>
      <cc:Work
         rdf:about="">
        <dc:format>image/svg+xml</dc:format>
        <dc:type
           rdf:resource="http://purl.org/dc/dcmitype/StillImage" />
        <dc:title></dc:title>
      </cc:Work>
    </rdf:RDF>
  </metadata>
  <g
     transform="translate(0,-289.06249)"
     id="layer1">
    <path
       id="path4531"
       d="m 5.5751489,289.33416 -3.779762,4.34673 -0.7087054,2.68127 2.7993862,-1.44104 3.6734561,-4.29948 z"
       style="fill:none;stroke:#000000;stroke-width:0.26458332px;stroke-linecap:butt;stroke-linejoin:miter;stroke-opacity:1" />
    <path
       id="path4533"
       d="m 1.7953869,293.68089 2.0906808,1.24023 z"
       style="fill:none;stroke:#000000;stroke-width:0.26458332px;stroke-linecap:butt;stroke-linejoin:miter;stroke-opacity:1" />
    <path
       id="path4535"
       d="m 4.976551,290.02255 2.0086765,1.27126"
       style="fill:none;stroke:#000000;stroke-width:0.26458332px;stroke-linecap:butt;stroke-linejoin:miter;stroke-opacity:1" />
    <path
       transform="matrix(0.26458333,0,0,0.26458333,0,289.06249)"
       id="path4539"
       d="M 22.961284,5.6402744 C 21.126813,4.4809236 19.63022,3.5178791 19.635521,3.5001755 c 0.01191,-0.039768 1.512758,-1.7758473 1.53523,-1.7758473 0.05052,0 6.577087,4.2619996 6.577087,4.2949872 0,0.030015 -1.052097,1.2865057 -1.402133,1.6745303 -0.03748,0.041548 -0.834177,-0.4418652 -3.384421,-2.0535713 z"
       style="fill:#ff8080;fill-opacity:1;stroke:none;stroke-width:0;stroke-linecap:square;stroke-linejoin:miter;stroke-miterlimit:4;stroke-dasharray:0, 0;stroke-opacity:1;stroke-dashoffset:0" />
    <path
       transform="matrix(0.26458333,0,0,0.26458333,0,289.06249)"
       id="path4541"
       d="m 4.950716,26.44531 c 0.8117824,-3.161532 2.1616721,-8.156943 2.2017715,-8.147891 0.1184212,0.02673 6.4393795,3.805741 6.4093425,3.831851 -0.0533,0.04634 -8.5661213,4.416487 -8.6030761,4.416487 -0.018606,0 -0.022223,-0.0452 -0.00804,-0.100447 z"
       style="fill:#ffb380;fill-opacity:1;stroke:none;stroke-width:0;stroke-linecap:square;stroke-linejoin:miter;stroke-miterlimit:4;stroke-dasharray:none;stroke-dashoffset:0;stroke-opacity:1" />
    <path
       transform="matrix(0.26458333,0,0,0.26458333,0,289.06249)"
       id="path4543"
       d="M 11.118374,19.419587 C 9.2277487,18.299382 7.6634532,17.366927 7.6421616,17.347466 7.611024,17.319006 18.77727,4.4169257 18.896792,4.343262 c 0.04333,-0.026707 6.684422,4.1764841 6.676498,4.2256017 -0.007,0.043127 -10.962423,12.8818813 -10.995095,12.8851963 -0.01228,0.0012 -1.569196,-0.914267 -3.459821,-2.034473 z"
       style="fill:#ffd42a;fill-opacity:1;stroke:none;stroke-width:0;stroke-linecap:square;stroke-linejoin:miter;stroke-miterlimit:4;stroke-dasharray:none;stroke-dashoffset:0;stroke-opacity:1" />
  </g>
</svg>
