

<svg
   xmlns:osb="http://www.openswatchbook.org/uri/2009/osb"
   xmlns:dc="http://purl.org/dc/elements/1.1/"
   xmlns:cc="http://creativecommons.org/ns#"
   xmlns:rdf="http://www.w3.org/1999/02/22-rdf-syntax-ns#"
   xmlns:svg="http://www.w3.org/2000/svg"
   xmlns="http://www.w3.org/2000/svg"
   xmlns:sodipodi="http://sodipodi.sourceforge.net/DTD/sodipodi-0.dtd"
   xmlns:inkscape="http://www.inkscape.org/namespaces/inkscape"
   width="30"
   height="30"
   viewBox="0 0 7.9374997 7.9375002"
   version="1.1"
   id="svg8"
   sodipodi:docname="rubber.svg"
   inkscape:version="0.92.1 r15371">
  <defs
     id="defs2">
    <linearGradient
       id="linearGradient4565"
       osb:paint="solid">
      <stop
         style="stop-color:#000000;stop-opacity:1;"
         offset="0"
         id="stop4563" />
    </linearGradient>
  </defs>
  <sodipodi:namedview
     id="base"
     pagecolor="#ffffff"
     bordercolor="#666666"
     borderopacity="1.0"
     inkscape:pageopacity="0.0"
     inkscape:pageshadow="2"
     inkscape:zoom="22.4"
     inkscape:cx="17.649624"
     inkscape:cy="15.043529"
     inkscape:document-units="mm"
     inkscape:current-layer="layer1"
     showgrid="false"
     units="px"
     inkscape:window-width="1920"
     inkscape:window-height="1017"
     inkscape:window-x="-8"
     inkscape:window-y="-8"
     inkscape:window-maximized="1"
     showguides="false"
     inkscape:object-paths="true" />
  <metadata
     id="metadata5">
    <rdf:RDF>
      <cc:Work
         rdf:about="">
        <dc:format>image/svg+xml</dc:format>
        <dc:type
           rdf:resource="http://purl.org/dc/dcmitype/StillImage" />
        <dc:title></dc:title>
      </cc:Work>
    </rdf:RDF>
  </metadata>
  <g
     inkscape:label="Layer 1"
     inkscape:groupmode="layer"
     id="layer1"
     transform="translate(0,-289.06248)">
    <path
       style="fill:none;stroke:#000000;stroke-width:0.065;stroke-linecap:butt;stroke-linejoin:miter;stroke-opacity:1;stroke-miterlimit:4;stroke-dasharray:none"
       d="m 3.9569382,289.54676 -2.4450335,4.4176 2.8820685,1.18117 2.2914805,-4.54752 z"
       id="path4559"
       inkscape:connector-curvature="0" />
    <path
       style="fill:none;stroke:#000000;stroke-width:0.065;stroke-linecap:butt;stroke-linejoin:miter;stroke-opacity:1;stroke-miterlimit:4;stroke-dasharray:none"
       d="m 1.5119047,293.96436 -0.76776408,1.38197 3.03562118,1.18118 0.6142114,-1.38198 z"
       id="path4561"
       inkscape:connector-curvature="0" />
    <path
       style="fill:#ff8080;fill-opacity:1;stroke:#000000;stroke-width:0.01096738;stroke-linecap:square;stroke-linejoin:miter;stroke-miterlimit:4;stroke-dasharray:none;stroke-dashoffset:0;stroke-opacity:1"
       d="M 11.198542,20.619625 5.9215672,18.452512 6.0869348,18.153791 c 0.090952,-0.164297 2.1341175,-3.858546 4.5403672,-8.2094422 3.772382,-6.8210878 4.387299,-7.9083772 4.464286,-7.8937044 0.09402,0.017919 9.814151,3.7593406 9.912115,3.815319 0.04108,0.023475 -1.12149,2.3697068 -4.195878,8.4678656 -2.338988,4.639466 -4.270616,8.439335 -4.292507,8.444151 -0.02189,0.0048 -2.41444,-0.966443 -5.316776,-2.158355 z"
       id="path4569"
       inkscape:connector-curvature="0"
       transform="matrix(0.26458333,0,0,0.26458333,0,289.06248)" />
    <path
       style="fill:#ffd5d5;fill-opacity:1;stroke:#000000;stroke-width:0.01096738;stroke-linecap:square;stroke-linejoin:miter;stroke-miterlimit:4;stroke-dasharray:none;stroke-dashoffset:0;stroke-opacity:1"
       d="M 8.6630166,25.874085 C 5.6429273,24.697838 3.1384885,23.719892 3.097597,23.700873 c -0.062726,-0.02918 0.1396563,-0.420022 1.2946429,-2.500259 0.752945,-1.356123 1.3851331,-2.466056 1.4048624,-2.466518 0.044888,-0.001 10.5323087,4.289783 10.5775127,4.327695 0.03697,0.031 -2.127468,4.927948 -2.184343,4.941991 -0.0199,0.0049 -2.507166,-0.953449 -5.5272554,-2.129697 z"
       id="path4571"
       inkscape:connector-curvature="0"
       transform="matrix(0.26458333,0,0,0.26458333,0,289.06248)" />
  </g>
</svg>
